<svg width="104" height="85" viewBox="0 0 104 85" fill="none" xmlns="http://www.w3.org/2000/svg">
<path fill-rule="evenodd" clip-rule="evenodd" d="M6.0944 6.22625C-6.19888e-07 12.4472 0 22.4666 0 42.5C0 62.5334 -6.19888e-07 72.5528 6.0944 78.7737C12.1888 84.9947 21.9908 85 41.6 85H62.4C82.0092 85 91.8164 85 97.9056 78.7737C103.995 72.5475 104 62.5334 104 42.5C104 22.4666 104 12.4472 97.9056 6.22625C91.8112 0.00531211 82.0092 0 62.4 0H41.6C21.9908 0 12.1836 -6.33299e-07 6.0944 6.22625ZM86.1952 18.7C86.8569 19.5117 87.176 20.5586 87.0824 21.6106C86.9888 22.6626 86.4901 23.6335 85.696 24.31L74.2768 34.0319C69.6644 37.9631 65.9308 41.14 62.6288 43.3075C59.1968 45.5653 55.8532 46.9891 52 46.9891C48.1468 46.9891 44.8032 45.56 41.366 43.3075C38.0692 41.14 34.3356 37.9578 29.7232 34.0372L18.304 24.3153C17.5089 23.639 17.0094 22.6677 16.9153 21.6152C16.8212 20.5626 17.1402 19.5149 17.8022 18.7027C18.4642 17.8904 19.4149 17.3801 20.4452 17.2839C21.4755 17.1878 22.5009 17.5137 23.296 18.19L34.528 27.7472C39.3796 31.875 42.744 34.7331 45.5936 36.6031C48.3444 38.4094 50.2112 39.0203 52.0052 39.0203C53.7992 39.0203 55.666 38.4147 58.4168 36.6031C61.2612 34.7331 64.6308 31.875 69.4824 27.7472L80.7092 18.1847C81.5043 17.5093 82.5295 17.1842 83.5592 17.2808C84.589 17.3774 85.5338 17.8879 86.1952 18.7Z" fill="#B390EF"/>
</svg>
