<svg width="104" height="104" viewBox="0 0 104 104" fill="none" xmlns="http://www.w3.org/2000/svg">
<g clip-path="url(#clip0_4068_125)">
<mask id="mask0_4068_125" style="mask-type:luminance" maskUnits="userSpaceOnUse" x="0" y="0" width="104" height="104">
<path d="M0 0H104V104H0V0Z" fill="white"/>
</mask>
<g mask="url(#mask0_4068_125)">
<path fill-rule="evenodd" clip-rule="evenodd" d="M104 52C104 80.717 80.717 104 52 104C23.283 104 0 80.717 0 52C0 23.283 23.283 0 52 0C80.717 0 104 23.283 104 52ZM53.8633 38.389C48.8078 40.4921 38.6996 44.8457 23.5387 51.4497C21.0773 52.429 19.7874 53.3867 19.669 54.3227C19.4697 55.9087 21.4543 56.5327 24.1497 57.3777L25.2893 57.7417C27.9457 58.604 31.5163 59.6137 33.371 59.6527C35.0552 59.6873 36.9359 58.994 39.013 57.5727C53.1743 48.0104 60.4847 43.1773 60.944 43.0733C61.269 42.9997 61.7197 42.9043 62.023 43.1773C62.3263 43.446 62.296 43.9573 62.2657 44.096C62.0663 44.9323 54.2923 52.1647 50.2623 55.9087C49.0057 57.0743 48.1173 57.902 47.9353 58.0927C47.5222 58.5116 47.1149 58.9146 46.7133 59.3017C44.2433 61.6763 42.3973 63.4617 46.8173 66.3737C48.9407 67.7733 50.6393 68.9303 52.3337 70.083C54.184 71.344 56.03 72.6007 58.422 74.1693C59.0287 74.5738 59.6137 74.9782 60.177 75.3827C62.3307 76.921 64.2677 78.299 66.6597 78.0823C68.0463 77.9523 69.485 76.648 70.213 72.7523C71.9333 63.5397 75.322 43.589 76.1063 35.3643C76.1584 34.6815 76.1293 33.995 76.0197 33.319C75.9591 32.7719 75.6926 32.2684 75.2743 31.9107C74.6547 31.4037 73.6927 31.2953 73.2593 31.304C71.305 31.3387 68.3063 32.383 53.8633 38.389Z" fill="#B390EF"/>
</g>
</g>
<defs>
<clipPath id="clip0_4068_125">
<rect width="104" height="104" fill="white"/>
</clipPath>
</defs>
</svg>
