<svg width="100" height="100" viewBox="0 0 100 100" fill="none" xmlns="http://www.w3.org/2000/svg">
<path d="M7 7C1.32455e-06 14.0667 0 25.3667 0 48V52C0 74.6 1.32455e-06 85.9 7 93C14.0667 100 25.3667 100 48 100H52C74.6 100 85.9 100 93 93C100 85.9333 100 74.6333 100 52V48C100 25.4 100 14.1 93 7C85.9333 1.32455e-06 74.6333 0 52 0H48C25.4 0 14.1 1.32455e-06 7 7ZM16.8667 30.4333H28.3333C28.7 49.5 37.1 57.5667 43.7667 59.2333V30.4333H54.5333V46.8667C61.1 46.1667 68.0333 38.6667 70.3667 30.4H81.1C80.2242 34.679 78.4757 38.7315 75.9637 42.3045C73.4517 45.8775 70.2301 48.8944 66.5 51.1667C70.6635 53.2382 74.3404 56.1691 77.288 59.766C80.2356 63.3628 82.387 67.5439 83.6 72.0333H71.7667C69.2333 64.1333 62.9 58 54.5333 57.1667V72.0333H53.2C30.4 72.0333 17.4 56.4333 16.8667 30.4333Z" fill="#B390EF"/>
</svg>
