<svg width="384" height="140" viewBox="0 0 384 140" fill="none" xmlns="http://www.w3.org/2000/svg">
<path d="M384 70C384 108.66 352.66 140 314 140H70C31.3401 140 0 108.66 0 70V70C0 31.3401 31.3401 0 70 0H314C352.66 0 384 31.3401 384 70V70Z" fill="white"/>
<path d="M80.5 27H303.5C326.972 27 346 46.0279 346 69.5C346 92.9721 326.972 112 303.5 112H80.5C57.0279 112 38 92.9721 38 69.5C38 46.0279 57.0279 27 80.5 27Z" stroke="#9979D0" stroke-width="2"/>
<path d="M82 35H302C321.33 35 337 50.67 337 70C337 89.33 321.33 105 302 105H82C62.67 105 47 89.33 47 70C47 50.67 62.67 35 82 35Z" stroke="#9979D0" stroke-width="2"/>
</svg>
